<?xml version="1.0" encoding="UTF-8"?>
<svg id="Layer_2" data-name="Layer 2" xmlns="http://www.w3.org/2000/svg" viewBox="0 0 1122.34 1079.71">
  <defs>
    <style>
      .cls-1 {
        fill: #f79228;
      }

      .cls-1, .cls-2, .cls-3 {
        stroke: #c8902b;
        stroke-miterlimit: 10;
      }

      .cls-2 {
        fill: #fff;
      }

      .cls-3 {
        fill: none;
      }
    </style>
  </defs>
  <g id="Layer_2-2" data-name="Layer 2">
    <rect class="cls-1" x=".5" y=".5" width="1121.34" height="1078.71"/>
  </g>
  <g id="Full_Logo_BLACK" data-name="Full Logo BLACK">
    <g>
      <g>
        <path class="cls-3" d="m642.38,704.67c1.5,2.81,3.71,4.9,6.61,6.27,2.91,1.38,6.59,2.06,11.04,2.06s8.12-.68,11.03-2.06c2.91-1.37,5.11-3.46,6.62-6.27,1.5-2.81,2.53-5.9,3.09-9.27.55-3.37.84-7.54.84-12.5v-71.19c0-4.9-.28-8.99-.84-12.26-.55-3.26-1.59-6.27-3.09-9.02-1.51-2.75-3.71-4.76-6.62-6.03-2.91-1.28-6.59-1.91-11.03-1.91s-8.13.63-11.04,1.91c-2.91,1.28-5.11,3.28-6.61,6.03-1.51,2.74-2.53,5.75-3.09,9.02-.55,3.27-.83,7.36-.83,12.26v71.19c0,4.97.28,9.13.83,12.5.56,3.37,1.59,6.46,3.09,9.27Z"/>
        <path class="cls-3" d="m906.88,626.32c.09,1.45.23,2.55.43,3.32.2.77.51,1.65.92,2.63.41.99.91,1.73,1.48,2.24.57.51,1.3.93,2.2,1.28.9.35,1.92.53,3.06.53,1.32,0,2.47-.2,3.45-.59.99-.39,1.76-1.05,2.34-1.97.57-.92,1.03-1.81,1.38-2.67.35-.86.61-2.09.76-3.69.15-1.6.24-2.9.26-3.88.02-.99.03-2.45.03-4.38v-24.42c0-1.67-.01-2.92-.03-3.75s-.08-1.97-.16-3.42-.23-2.55-.43-3.32-.49-1.66-.89-2.67c-.39-1.01-.89-1.76-1.48-2.24-.59-.48-1.33-.91-2.2-1.28-.88-.38-1.89-.56-3.03-.56s-2.16.18-3.06.56c-.9.38-1.63.8-2.2,1.28s-1.07,1.23-1.48,2.24c-.41,1.01-.72,1.9-.92,2.67-.2.77-.34,1.88-.43,3.32-.09,1.45-.14,2.59-.16,3.42s-.03,2.09-.03,3.75v24.42c0,1.67.01,2.92.03,3.75.02.84.08,1.97.16,3.42Z"/>
        <polygon class="cls-3" points="616.56 389.46 603.02 462.91 630.18 462.91 616.56 389.46"/>
        <path class="cls-3" d="m569.43,590.43c-1.51-2.75-3.71-4.76-6.62-6.03-2.91-1.28-6.59-1.91-11.03-1.91s-8.13.63-11.04,1.91c-2.91,1.28-5.11,3.28-6.61,6.03-1.51,2.74-2.53,5.75-3.09,9.02-.55,3.27-.83,7.36-.83,12.26v71.19c0,4.97.28,9.13.83,12.5.56,3.37,1.59,6.46,3.09,9.27,1.5,2.81,3.71,4.9,6.61,6.27,2.91,1.38,6.59,2.06,11.04,2.06s8.12-.68,11.03-2.06c2.91-1.37,5.11-3.46,6.62-6.27,1.5-2.81,2.53-5.9,3.09-9.27.55-3.37.84-7.54.84-12.5v-71.19c0-4.9-.28-8.99-.84-12.26-.55-3.26-1.59-6.27-3.09-9.02Z"/>
        <path class="cls-3" d="m256.88,384.85c-.68-2.35-1.59-4.17-2.7-5.44-1.11-1.28-2.67-2.37-4.66-3.28-1.99-.91-4.31-1.53-6.96-1.86-2.65-.33-5.93-.49-9.85-.49h-10.59v54.33h10.29c9.94,0,16.77-1.76,20.49-5.3,3.73-3.53,5.59-10.29,5.59-20.3,0-4.12-.1-7.5-.3-10.15-.2-2.65-.64-5.15-1.32-7.5Z"/>
        <polygon class="cls-3" points="325.08 389.46 311.54 462.91 338.71 462.91 325.08 389.46"/>
        <polygon class="cls-2" points="940.96 952.53 114.32 952.53 114.32 125.89 940.96 125.89 940.96 330.97 961.18 330.97 961.18 105.67 94.1 105.67 94.1 972.75 961.18 972.75 961.18 667.5 940.96 667.6 940.96 952.53"/>
        <path class="cls-2" d="m270.45,368.92c-6.34-7.61-16.57-11.42-30.69-11.42h-40.3v162.58h22.65v-75.7h17.75c13.07,0,23.03-3.69,29.86-11.08,6.83-7.39,10.25-17.68,10.25-30.89,0-14.71-3.17-25.87-9.52-33.48Zm-17.55,53.88c-3.72,3.53-10.56,5.3-20.49,5.3h-10.29v-54.33h10.59c3.92,0,7.21.16,9.85.49,2.65.33,4.97.95,6.96,1.86,1.99.91,3.55,2.01,4.66,3.28,1.11,1.28,2.01,3.09,2.7,5.44.68,2.36,1.13,4.86,1.32,7.5.2,2.65.3,6.03.3,10.15,0,10-1.86,16.77-5.59,20.3Z"/>
        <path class="cls-2" d="m308.6,479.09h33.05l7.45,40.99h21.57l-34.71-162.58h-21.86l-34.71,162.58h21.47l7.75-40.99Zm16.48-89.63l13.63,73.44h-27.17l13.54-73.44Z"/>
        <path class="cls-2" d="m468.73,415.65v-12.94c0-15.36-3.17-27-9.52-34.91-6.34-7.91-16.83-11.87-31.47-11.87-6.74,0-12.64.85-17.7,2.55-5.07,1.7-9.23,4.05-12.5,7.06-3.26,3.01-5.92,6.83-7.94,11.47-2.03,4.65-3.45,9.64-4.26,15-.82,5.36-1.22,11.47-1.22,18.33v57.46c0,6.41.4,12.19,1.18,17.36.78,5.16,2.2,10.08,4.26,14.75,2.06,4.67,4.71,8.58,7.94,11.72,3.24,3.13,7.4,5.62,12.5,7.45,5.09,1.83,11.01,2.74,17.75,2.74,6.27,0,11.79-.8,16.57-2.4,4.77-1.6,8.69-3.8,11.77-6.62,3.07-2.81,5.55-6.36,7.45-10.63,1.9-4.28,3.24-8.88,4.02-13.78.78-4.9,1.18-10.46,1.18-16.67v-12.06h-21.47v11.96c0,3.8-.05,6.86-.15,9.22-.1,2.36-.34,4.92-.74,7.7-.39,2.78-1.01,4.98-1.86,6.61-.85,1.64-1.97,3.2-3.38,4.71-1.4,1.5-3.2,2.58-5.39,3.23-2.19.66-4.79.98-7.8.98-7.84,0-13.3-2.38-16.37-7.15-3.07-4.77-4.61-13.27-4.61-25.49v-64.33c0-3.79.08-6.98.24-9.56.16-2.59.47-5.26.93-8.04.45-2.78,1.16-5.05,2.11-6.82.95-1.76,2.17-3.38,3.68-4.85,1.5-1.47,3.43-2.55,5.78-3.24,2.35-.68,5.1-1.03,8.23-1.03,2.09,0,3.99.16,5.69.49,1.7.33,3.17.74,4.41,1.22,1.24.49,2.36,1.24,3.34,2.26.98,1.01,1.8,1.96,2.45,2.84.65.88,1.19,2.11,1.62,3.68.42,1.57.77,2.94,1.03,4.12.26,1.17.44,2.81.54,4.9.1,2.09.16,3.84.2,5.25.03,1.41.05,3.35.05,5.83v11.48h21.47Z"/>
        <polygon class="cls-2" points="539.33 429.18 571.49 357.5 550.41 357.5 513.15 434.08 513.15 357.5 490.5 357.5 490.5 520.07 513.15 520.07 513.15 456.04 521.97 439.47 554.62 520.07 570.86 520.07 572.85 510.74 539.33 429.18"/>
        <path class="cls-2" d="m633.12,479.09l7.45,40.99h21.57l-34.71-162.58h-21.86l-32.72,153.24-1.99,9.34h21.47l7.75-40.99h33.05Zm-16.57-89.63l13.63,73.44h-27.16l13.54-73.44Z"/>
        <path class="cls-2" d="m745.49,501.35l2.16,18.73h14.41v-80.6h-41.18v16.08h20.59v11.37c0,13.01-1.57,22.45-4.71,28.34-3.14,5.88-8.96,8.83-17.45,8.83s-14.25-2.71-17.26-8.13c-3.01-5.43-4.51-14.39-4.51-26.87v-60.2c0-3.34.03-6.11.1-8.34.07-2.22.26-4.69.59-7.4.33-2.71.78-4.94,1.38-6.67.59-1.73,1.39-3.49,2.4-5.3,1.01-1.8,2.27-3.2,3.78-4.21,1.5-1.01,3.33-1.83,5.49-2.45,2.16-.62,4.64-.93,7.45-.93,3.67,0,6.73.42,9.22,1.27,2.48.86,4.49,2.01,6.03,3.48,1.54,1.47,2.71,3.55,3.53,6.23.82,2.69,1.36,5.51,1.61,8.48.26,2.97.39,6.75.39,11.33v5.1h21.28v-5.98c0-16.41-3.3-28.44-9.9-36.08-6.6-7.65-17.42-11.47-32.45-11.47-6.8,0-12.71.83-17.75,2.5-5.03,1.66-9.19,4-12.46,7.01-3.26,3.01-5.9,6.9-7.89,11.67-1.99,4.77-3.4,9.97-4.22,15.59-.82,5.63-1.22,12.16-1.22,19.61v54.42c0,18.24,3.27,32.02,9.81,41.34,6.53,9.31,17.19,13.97,31.96,13.97s23.93-6.9,28.83-20.69Z"/>
        <rect class="cls-2" x="786.49" y="357.5" width="22.26" height="162.58"/>
        <polygon class="cls-2" points="915.63 520.07 915.63 357.5 896.7 357.5 896.7 465.46 850.51 357.5 835.12 357.5 835.12 520.07 854.24 520.07 854.24 408.97 901.12 520.07 915.63 520.07"/>
        <path class="cls-2" d="m943.52,377.11c-1.99,4.77-3.4,9.97-4.22,15.59-.82,5.63-1.22,12.16-1.22,19.61v54.42c0,18.24,3.27,32.02,9.81,41.34,6.54,9.31,17.19,13.97,31.96,13.97s23.93-6.9,28.83-20.69l2.16,18.73h14.41v-80.6h-41.18v16.08h20.59v11.37c0,13.01-1.57,22.45-4.71,28.34-3.14,5.88-8.96,8.83-17.45,8.83s-14.25-2.71-17.26-8.13c-3.01-5.43-4.51-14.39-4.51-26.87v-60.2c0-3.34.03-6.11.1-8.34.07-2.22.26-4.69.59-7.4.33-2.71.78-4.94,1.38-6.67.59-1.73,1.39-3.49,2.4-5.3,1.01-1.8,2.27-3.2,3.78-4.21,1.5-1.01,3.33-1.83,5.49-2.45,2.16-.62,4.64-.93,7.45-.93,3.67,0,6.73.42,9.22,1.27,2.48.86,4.49,2.01,6.03,3.48,1.54,1.47,2.71,3.55,3.53,6.23.82,2.69,1.36,5.51,1.61,8.48.26,2.97.4,6.75.4,11.33v5.1h21.28v-5.98c0-16.41-3.3-28.44-9.9-36.08-6.6-7.65-17.42-11.47-32.45-11.47-6.8,0-12.71.83-17.75,2.5-5.03,1.66-9.19,4-12.46,7.01-3.26,3.01-5.9,6.9-7.89,11.67Z"/>
        <path class="cls-2" d="m237.71,712.9c-13.93,0-21.61-11.64-23.05-34.91l-20.2,5.49c.85,14.65,4.86,26.19,12.01,34.62,7.16,8.44,17.57,12.65,31.23,12.65,11.57,0,20.95-3.48,28.14-10.44,7.19-6.96,10.79-16.39,10.79-28.29,0-9.29-2.11-17.58-6.32-24.91-4.22-7.32-9.88-14.18-17.01-20.59l-27.46-24.22c-3.86-3.53-6.6-6.9-8.24-10.1-1.63-3.2-2.45-7.19-2.45-11.96,0-11.04,5.98-16.99,17.95-17.84,3.26-.2,6.14.21,8.63,1.22,2.48,1.01,4.48,2.39,5.98,4.12,1.5,1.73,2.78,3.99,3.82,6.77s1.8,5.54,2.25,8.29c.46,2.74.82,5.88,1.08,9.41l19.12-5.29c-1.31-14.45-5.2-25.12-11.67-32.02-6.48-6.9-16.22-10.25-29.22-10.05-11.83.13-21.16,3.48-28,10.05-6.83,6.57-10.25,15.74-10.25,27.5,0,7.98,1.26,14.73,3.77,20.25,2.52,5.53,6.52,10.77,12.02,15.74l27.26,24.22c3.07,2.88,5.44,5.18,7.11,6.91,1.66,1.74,3.43,3.91,5.3,6.52,1.86,2.61,3.2,5.36,4.01,8.24.82,2.88,1.23,6.05,1.23,9.51,0,6.28-1.52,11.03-4.56,14.27-3.04,3.24-7.47,4.85-13.29,4.85Z"/>
        <path class="cls-2" d="m376.07,624.56v-12.94c0-15.36-3.17-27-9.52-34.91-6.34-7.91-16.83-11.87-31.47-11.87-6.74,0-12.64.85-17.7,2.55-5.07,1.7-9.23,4.05-12.5,7.06-3.26,3.01-5.92,6.83-7.94,11.47-2.03,4.65-3.45,9.64-4.26,15-.82,5.36-1.22,11.47-1.22,18.33v57.46c0,6.41.39,12.19,1.18,17.36.78,5.16,2.2,10.08,4.26,14.75,2.06,4.67,4.71,8.58,7.94,11.72,3.24,3.13,7.4,5.62,12.5,7.45,5.09,1.83,11.01,2.74,17.75,2.74,6.27,0,11.79-.8,16.57-2.4,4.77-1.6,8.69-3.8,11.77-6.62,3.07-2.81,5.55-6.36,7.45-10.63,1.9-4.28,3.24-8.88,4.02-13.78.78-4.9,1.18-10.46,1.18-16.67v-12.06h-21.47v11.96c0,3.8-.05,6.86-.15,9.22-.1,2.36-.34,4.92-.74,7.7-.39,2.78-1.01,4.98-1.86,6.61-.85,1.64-1.97,3.21-3.38,4.71-1.4,1.5-3.2,2.58-5.39,3.23-2.19.66-4.79.98-7.8.98-7.84,0-13.3-2.38-16.37-7.15-3.07-4.77-4.61-13.27-4.61-25.49v-64.33c0-3.79.08-6.98.24-9.56.16-2.59.47-5.26.93-8.04.45-2.78,1.16-5.05,2.11-6.82.95-1.76,2.17-3.38,3.68-4.85,1.5-1.47,3.43-2.55,5.78-3.24,2.35-.68,5.1-1.03,8.23-1.03,2.09,0,3.99.16,5.69.49,1.7.33,3.17.74,4.41,1.22,1.24.49,2.36,1.24,3.34,2.26.98,1.01,1.8,1.96,2.45,2.84.65.88,1.19,2.11,1.62,3.68.42,1.57.77,2.94,1.03,4.12.26,1.17.44,2.81.54,4.9s.16,3.84.2,5.25c.03,1.41.05,3.35.05,5.83v11.48h21.47Z"/>
        <polygon class="cls-2" points="484.9 728.98 484.9 566.41 462.25 566.41 462.25 636.61 420.48 636.61 420.48 566.41 397.83 566.41 397.83 728.98 420.48 728.98 420.48 652.79 462.25 652.79 462.25 728.98 484.9 728.98"/>
        <path class="cls-2" d="m551.78,564.84c-15.82,0-27.18,4.36-34.08,13.09-6.9,8.73-10.35,21.55-10.35,38.49v61.58c0,8.37.78,15.69,2.36,21.97,1.57,6.27,4.05,11.77,7.45,16.47,3.4,4.71,7.99,8.27,13.77,10.69,5.79,2.42,12.73,3.63,20.84,3.63,15.69,0,27.02-4.54,33.98-13.63,6.96-9.08,10.44-22.09,10.44-39.03v-61.68c0-16.8-3.46-29.59-10.39-38.39-6.93-8.79-18.28-13.19-34.02-13.19Zm21.57,118.06c0,4.97-.28,9.13-.84,12.5-.55,3.37-1.59,6.46-3.09,9.27-1.51,2.81-3.71,4.9-6.62,6.27-2.91,1.38-6.59,2.06-11.03,2.06s-8.13-.68-11.04-2.06c-2.91-1.37-5.11-3.46-6.61-6.27-1.51-2.81-2.53-5.9-3.09-9.27-.55-3.37-.83-7.54-.83-12.5v-71.19c0-4.9.28-8.99.83-12.26.56-3.26,1.59-6.27,3.09-9.02,1.5-2.75,3.71-4.76,6.61-6.03,2.91-1.28,6.59-1.91,11.04-1.91s8.12.63,11.03,1.91c2.91,1.28,5.11,3.28,6.62,6.03,1.5,2.74,2.53,5.75,3.09,9.02.55,3.27.84,7.36.84,12.26v71.19Z"/>
        <path class="cls-2" d="m625.42,716.43c3.4,4.71,7.99,8.27,13.77,10.69,5.79,2.42,12.73,3.63,20.84,3.63,15.69,0,27.02-4.54,33.98-13.63,6.96-9.08,10.44-22.09,10.44-39.03v-61.68c0-16.8-3.46-29.59-10.39-38.39-6.93-8.79-18.28-13.19-34.02-13.19s-27.18,4.36-34.08,13.09c-6.9,8.73-10.34,21.55-10.34,38.49v61.58c0,8.37.78,15.69,2.35,21.97,1.57,6.27,4.05,11.77,7.45,16.47Zm13.04-104.72c0-4.9.28-8.99.83-12.26.56-3.26,1.59-6.27,3.09-9.02,1.5-2.75,3.71-4.76,6.61-6.03,2.91-1.28,6.59-1.91,11.04-1.91s8.12.63,11.03,1.91c2.91,1.28,5.11,3.28,6.62,6.03,1.5,2.74,2.53,5.75,3.09,9.02.55,3.27.84,7.36.84,12.26v71.19c0,4.97-.28,9.13-.84,12.5-.55,3.37-1.59,6.46-3.09,9.27-1.51,2.81-3.71,4.9-6.62,6.27-2.91,1.38-6.59,2.06-11.03,2.06s-8.13-.68-11.04-2.06c-2.91-1.37-5.11-3.46-6.61-6.27-1.51-2.81-2.53-5.9-3.09-9.27-.55-3.37-.83-7.54-.83-12.5v-71.19Z"/>
        <polygon class="cls-2" points="791.03 712.71 749.56 712.71 749.56 566.41 726.9 566.41 726.9 728.98 791.03 728.98 791.03 712.71"/>
        <rect class="cls-2" x="803.03" y="622.03" width="21.57" height="23.83"/>
        <path class="cls-2" d="m880.89,596.05v-4.67c0-4.21-.32-7.77-.95-10.66-.64-2.9-1.73-5.42-3.29-7.57-1.56-2.15-3.74-3.73-6.55-4.74-2.81-1.01-6.3-1.51-10.46-1.51-4.61,0-8.42.68-11.45,2.04-3.03,1.36-5.35,3.46-6.98,6.28-1.63,2.83-2.74,6.02-3.36,9.58-.61,3.55-.92,7.94-.92,13.16v18.03c0,4.03.18,7.52.53,10.46s1.01,5.76,1.97,8.46c.97,2.7,2.28,4.89,3.95,6.58,1.66,1.69,3.85,3.03,6.55,4.01,2.7.99,5.94,1.48,9.71,1.48,4.13,0,7.58-.55,10.37-1.65,2.78-1.1,4.97-2.78,6.55-5.03,1.58-2.26,2.7-4.86,3.36-7.8.66-2.94.99-6.5.99-10.66v-5.4h-13.03v6.32c0,1.8-.05,3.3-.13,4.51-.09,1.2-.28,2.42-.59,3.65-.31,1.23-.74,2.2-1.32,2.93-.57.72-1.35,1.32-2.34,1.78-.99.46-2.18.69-3.59.69-3.29,0-5.54-1.15-6.75-3.46-1.2-2.3-1.81-6.75-1.81-13.33v-24.55c0-6.8.54-11.42,1.61-13.85,1.07-2.44,3.37-3.65,6.88-3.65,3.07,0,5.18,1.02,6.32,3.06,1.14,2.04,1.71,5.63,1.71,10.76v4.74h13.03Z"/>
        <path class="cls-2" d="m897.14,639.15c1.71,2.59,4.05,4.54,7.01,5.86,2.96,1.32,6.57,1.97,10.83,1.97,8.21,0,14.04-2.45,17.51-7.37,3.47-4.92,5.2-12.04,5.2-21.39v-22.57c0-9.35-1.73-16.47-5.2-21.39-3.47-4.92-9.3-7.37-17.51-7.37-4.26,0-7.86.66-10.83,1.97-2.96,1.32-5.3,3.27-7.01,5.86-1.71,2.59-2.95,5.58-3.72,8.98-.77,3.4-1.15,7.38-1.15,11.94v22.57c0,4.56.38,8.54,1.15,11.94.77,3.4,2.01,6.4,3.72,8.98Zm9.54-44.42c0-1.67.01-2.92.03-3.75s.08-1.97.16-3.42c.09-1.45.23-2.55.43-3.32.2-.77.51-1.66.92-2.67.41-1.01.91-1.76,1.48-2.24s1.3-.91,2.2-1.28c.9-.38,1.92-.56,3.06-.56s2.15.18,3.03.56c.88.38,1.61.8,2.2,1.28.59.48,1.09,1.23,1.48,2.24.4,1.01.69,1.9.89,2.67s.34,1.88.43,3.32.14,2.59.16,3.42.03,2.09.03,3.75v24.42c0,1.93-.01,3.39-.03,4.38-.02.99-.11,2.28-.26,3.88-.15,1.6-.41,2.83-.76,3.69-.35.86-.81,1.74-1.38,2.67-.57.92-1.35,1.58-2.34,1.97-.99.39-2.14.59-3.45.59-1.14,0-2.16-.18-3.06-.53-.9-.35-1.63-.78-2.2-1.28-.57-.51-1.07-1.25-1.48-2.24-.41-.99-.72-1.86-.92-2.63-.2-.77-.34-1.88-.43-3.32-.09-1.45-.14-2.59-.16-3.42-.02-.84-.03-2.09-.03-3.75v-24.42Z"/>
        <path class="cls-2" d="m1024.52,571.04c-2.57-2.98-5.89-4.48-9.97-4.48-7.5,0-13.97,3.29-19.41,9.87-1.84-6.58-6.05-9.87-12.64-9.87-6.98,0-13.1,2.92-18.36,8.75v-7.37h-13.29v77.92h13.29v-63.44c4.13-4.26,8.18-6.38,12.17-6.38,2.15-.05,3.8.64,4.97,2.07,1.17,1.43,1.74,3.92,1.74,7.47v60.28h13.23v-61.14c0-1.05-.02-1.84-.07-2.37,4.08-4.21,8.14-6.32,12.17-6.32,2.15-.05,3.8.64,4.97,2.07,1.16,1.43,1.74,3.92,1.74,7.47v60.28h13.29v-61.14c0-6.14-1.28-10.71-3.85-13.69Z"/>
      </g>
      <g id="TM">
        <path class="cls-2" d="m1003.15,226.29v2.79h-7.9v20.66h-3.21v-20.66h-7.9v-2.79h19.02Z"/>
        <path class="cls-2" d="m1005.99,226.29h4.55l6.75,19.83,6.7-19.83h4.52v23.46h-3.03v-13.85c0-.48.01-1.27.03-2.38.02-1.11.03-2.29.03-3.56l-6.7,19.79h-3.15l-6.76-19.79v.72c0,.57.02,1.45.05,2.63.03,1.18.05,2.04.05,2.6v13.85h-3.03v-23.46Z"/>
      </g>
    </g>
  </g>
</svg>